<svg width="20" height="50" viewBox="0 0 20 50" fill="none" xmlns="http://www.w3.org/2000/svg">
<path d="M4.58013 1.11325C3.81424 -0.0355722 2.26207 -0.346007 1.11325 0.419874C-0.0355722 1.18576 -0.346007 2.73793 0.419874 3.88675L4.58013 1.11325ZM17.5 25L19.5801 26.3868C20.14 25.547 20.14 24.453 19.5801 23.6132L17.5 25ZM0.419874 46.1132C-0.346007 47.2621 -0.0355722 48.8142 1.11325 49.5801C2.26207 50.346 3.81424 50.0356 4.58013 48.8868L0.419874 46.1132ZM0.419874 3.88675L15.4199 26.3868L19.5801 23.6132L4.58013 1.11325L0.419874 3.88675ZM15.4199 23.6132L0.419874 46.1132L4.58013 48.8868L19.5801 26.3868L15.4199 23.6132Z" fill="#0171AD"/>
</svg>
