<svg width="20" height="50" viewBox="0 0 20 50" fill="none" xmlns="http://www.w3.org/2000/svg">
<path d="M19.5801 3.88675C20.346 2.73793 20.0356 1.18576 18.8868 0.419874C17.7379 -0.346007 16.1858 -0.0355722 15.4199 1.11325L19.5801 3.88675ZM2.5 25L0.419874 23.6132C-0.139958 24.453 -0.139958 25.547 0.419874 26.3868L2.5 25ZM15.4199 48.8868C16.1858 50.0356 17.7379 50.346 18.8868 49.5801C20.0356 48.8142 20.346 47.2621 19.5801 46.1132L15.4199 48.8868ZM15.4199 1.11325L0.419874 23.6132L4.58013 26.3868L19.5801 3.88675L15.4199 1.11325ZM0.419874 26.3868L15.4199 48.8868L19.5801 46.1132L4.58013 23.6132L0.419874 26.3868Z" fill="#0171AD"/>
</svg>
